<?xml version="1.0" encoding="UTF-8"?>
<svg version="1.1" xmlns="http://www.w3.org/2000/svg" width="1621" height="1449">
<path d="M0 0 C4.73991679 0.0192533 9.47985571 0.02630912 14.2198015 0.03499357 C22.49425712 0.05178088 30.76866291 0.07609966 39.04308279 0.10554354 C51.29402949 0.14909751 63.54498691 0.18074598 75.79597526 0.20992705 C96.37051641 0.25924018 116.94502058 0.31792025 137.51952131 0.38176577 C165.98898252 0.47000572 194.45846862 0.54486196 222.92797561 0.61660986 C236.19140741 0.65006088 249.45483749 0.6841791 262.71826704 0.71851198 C263.37827446 0.72021996 264.03828188 0.72192794 264.71828952 0.72368768 C296.36437869 0.80562506 328.01044826 0.89428128 359.65651472 0.98451845 C360.31808885 0.98640423 360.97966297 0.98829 361.6612848 0.99023292 C379.21370045 1.04026603 396.76611523 1.09060158 414.31852968 1.14105456 C434.7550839 1.19979457 455.19163872 1.25832216 475.62819441 1.3165497 C477.22425124 1.32109722 477.22425124 1.32109722 478.85255164 1.32573661 C521.84361148 1.44815837 564.83468667 1.56423218 607.82577659 1.67557441 C618.27432839 1.70267805 628.72287863 1.7302542 639.17142637 1.75888292 C735.65036397 2.0232043 832.12887804 2.19078106 983.52470794 2.12831113 C996.10784883 2.12171405 1008.69098985 2.11582725 1021.27413137 2.11056559 C1022.10142066 2.11021931 1022.92870995 2.10987303 1023.78106861 2.10951626 C1025.4522091 2.10881718 1027.1233496 2.10811826 1028.79449009 2.10741952 C1030.03514329 2.10690075 1030.03514329 2.10690075 1031.30086018 2.10637151 C1032.12783798 2.10602603 1032.95481577 2.10568056 1033.8068535 2.10532462 C1048.84513536 2.09901999 1063.88341697 2.0921161 1078.9216985 2.0850575 C1081.42559524 2.08388378 1083.92949199 2.082719 1086.43338874 2.08155441 C1126.1296198 2.06300563 1165.82581889 2.0351854 1205.52202621 1.98746765 C1222.9747295 1.96650789 1240.42742892 1.94712581 1257.88014181 1.93626349 C1258.64106998 1.93578929 1259.40199816 1.93531509 1260.18598476 1.93482653 C1267.7513799 1.9301802 1275.31677518 1.92604158 1282.88217096 1.92258792 C1286.5819004 1.92088498 1290.28162975 1.91905004 1293.98135908 1.9171261 C1295.07046846 1.91656214 1295.07046846 1.91656214 1296.18158005 1.91598679 C1307.72280071 1.90969153 1319.26398172 1.89284214 1330.80518349 1.87155933 C1342.24704797 1.85064204 1353.68886766 1.84061949 1365.13075407 1.84120547 C1371.27043911 1.84117678 1377.41001706 1.83632935 1383.54967733 1.81810431 C1389.15254284 1.80155095 1394.75523834 1.79902415 1400.35812052 1.80734564 C1402.36894061 1.80791375 1404.37977036 1.80348606 1406.39056464 1.79328146 C1435.9901271 1.65113196 1466.33869177 7.30183594 1488.29323347 28.71645205 C1502.55351081 43.42376003 1509.12184395 62.80698787 1508.84352644 83.06850283 C1507.08928627 119.63056115 1486.96996842 150.53280214 1468.91969831 181.19716494 C1463.85427901 189.8223206 1458.9966448 198.55587702 1454.15749128 207.30946963 C1448.96570713 216.69606977 1443.67051264 226.01888959 1438.32741316 235.31996767 C1435.15288071 240.84762349 1431.98522238 246.37921139 1428.82008894 251.91225283 C1428.48119642 252.50457705 1428.1423039 253.09690127 1427.79314192 253.7071747 C1422.37373322 263.18328558 1417.02149653 272.69552296 1411.69899519 282.22646181 C1406.1002773 292.24501037 1400.40441051 302.20645423 1394.69508894 312.16225283 C1392.06830974 316.7445694 1389.44315364 321.32780933 1386.82008894 325.91225283 C1386.31088911 326.80196276 1386.31088911 326.80196276 1385.79140241 327.70964663 C1381.00106909 336.08306858 1376.26591064 344.48534999 1371.57008894 352.91225283 C1367.05738372 361.00949562 1362.45358619 369.04497611 1357.75758894 377.03725283 C1352.07384341 386.71319096 1346.58718634 396.48781222 1341.15797956 406.30849306 C1335.96612878 415.69547249 1330.67069363 425.01857452 1325.32741316 434.31996767 C1322.15288071 439.84762349 1318.98522238 445.37921139 1315.82008894 450.91225283 C1315.31175016 451.80073916 1315.31175016 451.80073916 1314.79314192 452.7071747 C1309.37504358 462.18099436 1304.02294648 471.6903024 1298.70338972 481.21987002 C1295.07083369 487.72219712 1291.4009557 494.20145173 1287.69508894 500.66225283 C1282.73118349 509.3178405 1277.84377632 518.01460172 1272.97633894 526.72475283 C1269.06892505 533.71515921 1265.14087792 540.6934416 1261.19508894 547.66225283 C1254.9152602 558.75687128 1248.68408128 569.87838798 1242.46120222 581.00502627 C1238.95914762 587.2655419 1235.4529514 593.52373895 1231.94753034 599.78237002 C1229.01696109 605.01500331 1226.0873985 610.24819505 1223.15993269 615.48256533 C1216.99450013 626.50395804 1210.80774924 637.51270602 1204.58717878 648.50307314 C1198.84597198 658.65217958 1193.15292284 668.82811041 1187.46120222 679.00502627 C1183.95914762 685.2655419 1180.4529514 691.52373895 1176.94753034 697.78237002 C1174.01696109 703.01500331 1171.0873985 708.24819505 1168.15993269 713.48256533 C1161.99450013 724.50395804 1155.80774924 735.51270602 1149.58717878 746.50307314 C1143.84597198 756.65217958 1138.15292284 766.82811041 1132.46120222 777.00502627 C1128.95914762 783.2655419 1125.4529514 789.52373895 1121.94753034 795.78237002 C1119.01696109 801.01500331 1116.0873985 806.24819505 1113.15993269 811.48256533 C1106.99450013 822.50395804 1100.80774924 833.51270602 1094.58717878 844.50307314 C1088.84597198 854.65217958 1083.15292284 864.82811041 1077.46120222 875.00502627 C1074.54110757 880.22518994 1071.61795328 885.44363962 1068.69508894 890.66225283 C1067.5284074 892.74557783 1066.36174074 894.82891117 1065.19508894 896.91225283 C1062.8617556 901.0789195 1060.52842227 905.24558616 1058.19508894 909.41225283 C1057.61750837 910.44366396 1057.03992781 911.47507509 1056.4448448 912.53774111 C1055.27905141 914.61948015 1054.11319862 916.70118592 1052.9472862 918.7828583 C1050.01676834 924.01531206 1047.08730978 929.24835369 1044.15993269 934.48256533 C1037.99450013 945.50395804 1031.80774924 956.51270602 1025.58717878 967.50307314 C1019.84597198 977.65217958 1014.15292284 987.82811041 1008.46120222 998.00502627 C1004.95914762 1004.2655419 1001.4529514 1010.52373895 997.94753034 1016.78237002 C995.01696109 1022.01500331 992.0873985 1027.24819505 989.15993269 1032.48256533 C982.99450013 1043.50395804 976.80774924 1054.51270602 970.58717878 1065.50307314 C964.84597198 1075.65217958 959.15292284 1085.82811041 953.46120222 1096.00502627 C949.95914762 1102.2655419 946.4529514 1108.52373895 942.94753034 1114.78237002 C940.01696109 1120.01500331 937.0873985 1125.24819505 934.15993269 1130.48256533 C927.99450013 1141.50395804 921.80774924 1152.51270602 915.58717878 1163.50307314 C909.84597198 1173.65217958 904.15292284 1183.82811041 898.46120222 1194.00502627 C895.54110757 1199.22518994 892.61795328 1204.44363962 889.69508894 1209.66225283 C888.5284074 1211.74557783 887.36174074 1213.82891117 886.19508894 1215.91225283 C883.8617556 1220.0789195 881.52842227 1224.24558616 879.19508894 1228.41225283 C878.61750837 1229.44366396 878.03992781 1230.47507509 877.4448448 1231.53774111 C876.27905141 1233.61948015 875.11319862 1235.70118592 873.9472862 1237.7828583 C871.01676834 1243.01531206 868.08730978 1248.24835369 865.15993269 1253.48256533 C858.99450013 1264.50395804 852.80774924 1275.51270602 846.58717878 1286.50307314 C840.84597198 1296.65217958 835.15292284 1306.82811041 829.46120222 1317.00502627 C825.95914762 1323.2655419 822.4529514 1329.52373895 818.94753034 1335.78237002 C816.01696109 1341.01500331 813.0873985 1346.24819505 810.15993269 1351.48256533 C807.24687947 1356.69062938 804.33011161 1361.89659799 801.41090925 1367.10121767 C800.2710509 1369.13473275 799.13237023 1371.16890843 797.99489363 1373.20375673 C761.98707768 1437.60194874 761.98707768 1437.60194874 734.34743269 1447.34194033 C723.34255645 1450.30630508 712.78599941 1449.58611721 702.69508894 1444.16225283 C678.02580518 1429.30461602 668.72614037 1399.7632048 660.94508894 1373.66225283 C660.29717807 1371.51531614 659.64855509 1369.36859426 658.99928816 1367.22206728 C656.88209549 1360.20682162 654.78730825 1353.18497988 652.69508894 1346.16225283 C651.9812391 1343.76950677 651.26737186 1341.3767659 650.55348738 1338.98403017 C646.46525015 1325.2721452 642.39802097 1311.5540896 638.33724745 1297.83405344 C632.99006447 1279.76883068 627.61748808 1261.71117371 622.2426277 1243.65416948 C621.4427976 1240.96705485 620.64306152 1238.27991225 619.84334333 1235.5927643 C611.83907586 1208.69842142 603.81489792 1181.81006595 595.77919538 1154.92510073 C587.96763777 1128.78954605 580.18069962 1102.64672336 572.40346296 1076.50093691 C564.68400255 1050.54971373 556.94885948 1024.60324512 549.19508894 998.66225283 C541.17626666 971.83450423 533.17834617 945.00060593 525.19508894 918.16225283 C517.47043666 892.19333325 509.73430488 866.22789586 501.97734602 840.26860659 C500.76634474 836.21588552 499.55564034 832.16307584 498.34506662 828.11022703 C494.3087609 814.59719658 490.27206658 801.08429113 486.22421797 787.57471316 C484.87297258 783.06369549 483.52370153 778.55208904 482.17491682 774.0403351 C481.57079947 772.02145891 480.96570149 770.00287585 480.35954817 767.98461001 C479.55360722 765.30105269 478.75088404 762.61655446 477.94899519 759.93178408 C477.71589643 759.15888033 477.48279768 758.38597658 477.24263532 757.58965151 C475.69508894 752.39033828 475.69508894 752.39033828 475.69508894 750.16225283 C477.85283908 748.67468923 480.00989245 747.31579965 482.25758894 745.97475283 C483.73420781 745.07332852 485.20938419 744.16953845 486.68337019 743.26381533 C487.48855085 742.76913759 488.29373152 742.27445986 489.12331159 741.76479189 C493.77708833 738.86490671 498.35835623 735.85413771 502.94508894 732.84975283 C503.92244001 732.21045839 504.89979109 731.57116396 505.90675886 730.91249697 C507.87906878 729.62222957 509.85115688 728.33162302 511.82301863 727.0406708 C516.23330614 724.1562138 520.65111519 721.28337887 525.07008894 718.41225283 C525.89089948 717.87882265 526.71171003 717.34539248 527.55739363 716.79579775 C533.45442916 712.96484674 539.35751515 709.14330998 545.26296003 705.32533877 C550.74586458 701.77946222 556.22135622 698.22226831 561.69508894 694.66225283 C567.85690651 690.65471956 574.02237098 686.65297659 580.19508894 682.66225283 C589.70620398 676.51268015 599.20060874 670.33746564 608.69508894 664.16225283 C618.87740756 657.53966969 629.0618061 650.92050136 639.26222761 644.32582705 C644.74536103 640.77976413 650.22111025 637.22242828 655.69508894 633.66225283 C661.85690651 629.65471956 668.02237098 625.65297659 674.19508894 621.66225283 C683.70620398 615.51268015 693.20060874 609.33746564 702.69508894 603.16225283 C712.87740756 596.53966969 723.0618061 589.92050136 733.26222761 583.32582705 C738.74536103 579.77976413 744.22111025 576.22242828 749.69508894 572.66225283 C755.85690651 568.65471956 762.02237098 564.65297659 768.19508894 560.66225283 C777.70620398 554.51268015 787.20060874 548.33746564 796.69508894 542.16225283 C806.87740756 535.53966969 817.0618061 528.92050136 827.26222761 522.32582705 C832.74536103 518.77976413 838.22111025 515.22242828 843.69508894 511.66225283 C849.85690651 507.65471956 856.02237098 503.65297659 862.19508894 499.66225283 C871.70620398 493.51268015 881.20060874 487.33746564 890.69508894 481.16225283 C900.87740756 474.53966969 911.0618061 467.92050136 921.26222761 461.32582705 C926.74536103 457.77976413 932.22111025 454.22242828 937.69508894 450.66225283 C943.85690651 446.65471956 950.02237098 442.65297659 956.19508894 438.66225283 C965.70620398 432.51268015 975.20060874 426.33746564 984.69508894 420.16225283 C994.87740756 413.53966969 1005.0618061 406.92050136 1015.26222761 400.32582705 C1020.74536103 396.77976413 1026.22111025 393.22242828 1031.69508894 389.66225283 C1038.54228493 385.208962 1045.39537238 380.76497348 1052.25490339 376.33070986 C1058.65903133 372.18928879 1065.05354066 368.03310873 1071.44264753 363.86855166 C1075.18857782 361.42928184 1078.93831857 358.99898471 1082.72243269 356.61928408 C1101.32671637 344.90748445 1117.98183291 330.33704695 1125.69508894 309.16225283 C1126.08567488 308.1077997 1126.47626081 307.05334658 1126.87868269 305.96694033 C1131.34571548 292.39581647 1131.52781925 278.37114363 1125.69508894 265.16225283 C1118.5056288 251.92576731 1106.73080566 243.51046785 1092.47633894 239.18569033 C1065.0774975 232.46166273 1039.36573581 241.62475181 1015.32008894 254.41225283 C1013.86358694 255.17595837 1012.40654857 255.93864175 1010.94899519 256.70033877 C1007.45980178 258.52672944 1003.97704797 260.36495239 1000.49696882 262.20863955 C998.07401453 263.49094555 995.64655224 264.76458063 993.21852644 266.03725283 C990.25998962 267.58929245 987.30450398 269.1468936 984.35133894 270.70912783 C978.64721624 273.7215863 972.9202031 276.68994367 967.19508894 279.66225283 C959.8923847 283.45410489 952.59663621 287.25793941 945.32008894 291.09975283 C937.63128627 295.15847619 929.9159809 299.16494572 922.19508894 303.16225283 C913.6768046 307.57255823 905.16994 312.00258758 896.68629988 316.47914736 C887.68528939 321.2272094 878.65897866 325.9266882 869.63454206 330.63002627 C864.82064151 333.1393319 860.00790246 335.65086309 855.19508894 338.16225283 C849.39880702 341.18682938 843.60225564 344.21088368 837.80446394 347.23256533 C829.0091203 351.81743435 820.21736796 356.40838705 811.44508894 361.03725283 C802.54505779 365.73268072 793.60957097 370.35891452 784.67360456 374.98549502 C777.33009379 378.7897898 770.00083495 382.61948888 762.68629988 386.47914736 C753.68528939 391.2272094 744.65897866 395.9266882 735.63454206 400.63002627 C730.82064151 403.1393319 726.00790246 405.65086309 721.19508894 408.16225283 C715.39880702 411.18682938 709.60225564 414.21088368 703.80446394 417.23256533 C695.0091203 421.81743435 686.21736796 426.40838705 677.44508894 431.03725283 C668.54505779 435.73268072 659.60957097 440.35891452 650.67360456 444.98549502 C643.33009379 448.7897898 636.00083495 452.61948888 628.68629988 456.47914736 C619.68528939 461.2272094 610.65897866 465.9266882 601.63454206 470.63002627 C596.82064151 473.1393319 592.00790246 475.65086309 587.19508894 478.16225283 C581.39880702 481.18682938 575.60225564 484.21088368 569.80446394 487.23256533 C560.96782473 491.83892979 552.13457674 496.45111944 543.32008894 501.09975283 C534.8809947 505.55040907 526.41630832 509.95111425 517.94899519 514.3477997 C511.72909806 517.5792603 505.51844951 520.82719183 499.32008894 524.09975283 C491.63128627 528.15847619 483.9159809 532.16494572 476.19508894 536.16225283 C467.6768046 540.57255823 459.16994 545.00258758 450.68629988 549.47914736 C444.61461967 552.68197824 438.53190001 555.86327719 432.44508894 559.03725283 C431.48489851 559.53797304 430.52470808 560.03869326 429.53542097 560.55458681 C425.59258741 562.61021562 421.64939199 564.66514854 417.70583113 566.71938173 C415.7210026 567.75332232 413.73638195 568.78766209 411.7519737 569.82240908 C409.81601052 570.83093482 407.87901702 571.83748552 405.94093855 572.84194033 C401.46470531 575.16705499 397.01511546 577.52342572 392.61305769 579.98647158 C391.83108015 580.41871035 391.04910261 580.85094912 390.24342878 581.29628603 C388.79477573 582.10033751 387.35310748 582.91715826 385.92018659 583.74892275 C381.29130825 586.30296892 381.29130825 586.30296892 378.46071394 585.63490908 C376.45083283 583.95852594 374.82064128 582.22997575 373.13258894 580.22475283 C367.59157568 573.88820177 361.60661048 568.01970664 355.61086042 562.11562197 C352.02910894 558.57115375 348.51530792 555.02773128 345.23415144 551.20131533 C340.98791105 546.25618635 336.33589474 541.73379287 331.69508894 537.16225283 C326.44500978 531.99053306 321.32437122 526.81186073 316.52712019 521.21694033 C312.77819687 517.01239093 308.70664304 513.11393299 304.69508894 509.16225283 C299.44500978 503.99053306 294.32437122 498.81186073 289.52712019 493.21694033 C285.77819687 489.01239093 281.70664304 485.11393299 277.69508894 481.16225283 C268.06598098 471.6768629 268.06598098 471.6768629 264.22633894 467.19350283 C259.83365966 462.07042489 254.99787335 457.39710536 250.19508894 452.66225283 C244.77434131 447.31817773 239.46156869 441.98159872 234.50954206 436.1993622 C230.76844087 431.99918077 226.7005835 428.10796389 222.69508894 424.16225283 C217.44500978 418.99053306 212.32437122 413.81186073 207.52712019 408.21694033 C203.77819687 404.01239093 199.70664304 400.11393299 195.69508894 396.16225283 C190.44500978 390.99053306 185.32437122 385.81186073 180.52712019 380.21694033 C176.77819687 376.01239093 172.70664304 372.11393299 168.69508894 368.16225283 C163.44500978 362.99053306 158.32437122 357.81186073 153.52712019 352.21694033 C149.77819687 348.01239093 145.70664304 344.11393299 141.69508894 340.16225283 C136.44500978 334.99053306 131.32437122 329.81186073 126.52712019 324.21694033 C122.77819687 320.01239093 118.70664304 316.11393299 114.69508894 312.16225283 C105.06598098 302.6768629 105.06598098 302.6768629 101.22633894 298.19350283 C96.83365966 293.07042489 91.99787335 288.39710536 87.19508894 283.66225283 C81.77434131 278.31817773 76.46156869 272.98159872 71.50954206 267.1993622 C67.76844087 262.99918077 63.7005835 259.10796389 59.69508894 255.16225283 C54.44500978 249.99053306 49.32437122 244.81186073 44.52712019 239.21694033 C40.77819687 235.01239093 36.70664304 231.11393299 32.69508894 227.16225283 C27.44500978 221.99053306 22.32437122 216.81186073 17.52712019 211.21694033 C13.77819687 207.01239093 9.70664304 203.11393299 5.69508894 199.16225283 C0.44500978 193.99053306 -4.67562878 188.81186073 -9.47287981 183.21694033 C-13.22180313 179.01239093 -17.29335696 175.11393299 -21.30491106 171.16225283 C-26.55499022 165.99053306 -31.67562878 160.81186073 -36.47287981 155.21694033 C-40.22180313 151.01239093 -44.29335696 147.11393299 -48.30491106 143.16225283 C-53.58970495 137.95633646 -58.74662218 132.74266104 -63.57541887 127.11000673 C-66.76654673 123.51615891 -70.24541842 120.20858395 -73.67991106 116.84975283 C-80.01362206 110.57312066 -85.95044444 104.30836698 -91.30491106 97.16225283 C-91.70758196 96.63599306 -92.11025286 96.1097333 -92.52512591 95.56752627 C-103.85519906 80.70349834 -114.68364248 62.62723794 -112.30491106 43.16225283 C-111.00732986 35.90577951 -108.62639355 30.11112903 -104.30491106 24.16225283 C-103.74803606 23.31662783 -103.19116106 22.47100283 -102.61741106 21.59975283 C-77.66598191 -4.70040223 -32.92347493 -0.15003735 0 0 Z " fill="#BEBEBE" transform="translate(112.30491106212139,-0.16225282847881317)"/>
</svg>
