<?xml version="1.0" encoding="UTF-8"?>
<svg viewBox="0 0 1567 1499" version="1.1" xmlns="http://www.w3.org/2000/svg" width="1567" height="1499">
<path d="M0 0 C4.16332351 3.49734633 8.09092954 7.2232535 12 11 C12.77988281 11.72832031 13.55976562 12.45664062 14.36328125 13.20703125 C29.96316064 28.1419069 41.80012132 47.23686218 51.98388672 66.13671875 C52.93276961 67.87671736 53.92010106 69.59559447 54.91015625 71.3125 C60.30641175 80.88614425 64.42613092 90.95199697 68.5246582 101.1315918 C71.30662736 108.02342671 74.25472371 114.78615819 77.43191528 121.50123596 C80.29411899 127.57018159 82.8798198 133.73558649 85.4375 139.9375 C91.63639449 154.86121931 97.99992407 169.7133609 104.375 184.5625 C106.47561727 189.45687818 108.575902 194.3513989 110.67578125 199.24609375 C110.93924599 199.8601816 111.20271072 200.47426945 111.47415924 201.10696602 C117.19254085 214.43682664 122.88171515 227.77907747 128.5625 241.125 C129.03253448 242.22913239 129.50256897 243.33326477 129.98684692 244.47085571 C132.8430308 251.18045115 135.69837968 257.89040167 138.5534668 264.60046387 C142.97183919 274.98419828 147.39160585 285.36733899 151.8125 295.75 C152.53628342 297.44990082 152.53628342 297.44990082 153.27468872 299.18414307 C159.84925121 314.62358072 166.44491777 330.05378509 173.06201172 345.47503662 C179.83640274 361.26470443 186.57860358 377.06803065 193.3125 392.875 C193.81144775 394.04579102 194.31039551 395.21658203 194.82446289 396.42285156 C196.25461829 399.77906323 197.68407308 403.13557237 199.11328125 406.4921875 C199.53337967 407.47798798 199.95347809 408.46378845 200.38630676 409.47946167 C202.4929222 414.42967474 204.58219471 419.38656387 206.64958191 424.353302 C207.09204852 425.41604403 207.53451513 426.47878605 207.99038982 427.57373238 C208.32356118 428.37440069 208.65673254 429.17506901 209 430 C249.53540399 433.90024808 290.08031918 437.67789455 330.6386139 441.33276353 C338.02410457 441.99839876 345.40940453 442.66613985 352.79469521 443.33398966 C366.00317156 444.52840326 379.21174675 445.72171939 392.42041016 446.9140625 C393.58895269 447.01954718 393.58895269 447.01954718 394.78110214 447.12716286 C399.51974238 447.55491533 404.25838502 447.98264115 408.99702835 448.41035938 C416.14727419 449.05575529 423.29751681 449.70118691 430.44775391 450.34667969 C431.62477041 450.45293509 431.62477041 450.45293509 432.82556503 450.56133707 C446.03430677 451.75379607 459.24294234 452.94742755 472.45150721 454.14184415 C479.79312326 454.80567712 487.13479249 455.46891033 494.47660446 456.13057327 C546.90109975 460.85564839 546.90109975 460.85564839 568.8413403 462.95638347 C570.52823306 463.11750767 572.21526108 463.27722425 573.90244365 463.43528485 C615.43952956 467.33732135 662.28330029 476.27060208 695 504 C695.86625 504.71671875 696.7325 505.4334375 697.625 506.171875 C712.78214041 519.20331889 724.62250158 536.77925583 727 557 C729.00382805 593.42874718 716.32722662 623.57588476 694 652 C693.23816406 652.97453125 692.47632813 653.9490625 691.69140625 654.953125 C686.91476517 660.91328321 681.83003482 666.5537045 676.6328125 672.14453125 C674.31068635 674.66303899 672.05461464 677.22307741 669.8125 679.8125 C666.73844859 683.29433374 663.4664222 686.33312 659.921875 689.328125 C658.07539056 690.93441634 656.38466977 692.61317614 654.6875 694.375 C643.36823563 705.87725479 643.36823563 705.87725479 637 708 C636.67 708.99 636.34 709.98 636 711 C634.44996996 712.39589947 632.83365761 713.71887019 631.1875 715 C626.97015156 718.36078478 622.94042037 721.82012988 619 725.5 C614.41324412 729.77004603 609.66549516 733.75764758 604.78125 737.6875 C601.75980812 740.1997101 598.87558227 742.82400827 596 745.5 C591.41239887 749.76918152 586.66557272 753.75758517 581.78125 757.6875 C578.75980812 760.1997101 575.87558227 762.82400827 573 765.5 C568.41239887 769.76918152 563.66557272 773.75758517 558.78125 777.6875 C555.75980812 780.1997101 552.87558227 782.82400827 550 785.5 C545.41239887 789.76918152 540.66557272 793.75758517 535.78125 797.6875 C532.75980812 800.1997101 529.87558227 802.82400827 527 805.5 C522.41239887 809.76918152 517.66557272 813.75758517 512.78125 817.6875 C509.22814914 820.64176364 505.8597632 823.76913424 502.47827148 826.91625977 C499.2670095 829.88715628 495.97372185 832.69961077 492.5625 835.4375 C488.37762693 838.80346265 484.41685602 842.33176017 480.5 846 C475.73908666 850.45872195 470.83532437 854.63797624 465.74609375 858.72265625 C462.73680948 861.21826469 459.86061346 863.83765143 457 866.5 C452.41242561 870.76920779 447.66556996 874.75758739 442.78125 878.6875 C439.75980812 881.1997101 436.87558227 883.82400827 434 886.5 C429.41239887 890.76918152 424.66557272 894.75758517 419.78125 898.6875 C416.75980812 901.1997101 413.87558227 903.82400827 411 906.5 C407.26670522 909.9741715 403.47629157 913.30068494 399.5 916.5 C394.43735591 920.57498953 389.6725928 924.89502743 384.921875 929.32421875 C382.74775341 931.31522582 380.55806724 933.25388179 378.31738281 935.16723633 C377.69406067 935.69996658 377.07073853 936.23269684 376.42852783 936.78157043 C375.95711365 937.18365219 375.48569946 937.58573395 375 938 C380.84121725 965.40888894 386.97117592 992.74910335 393.17163086 1020.07870483 C395.74391331 1031.41657127 398.31018431 1042.75579936 400.8767662 1054.09495735 C401.47344318 1056.73106654 402.07020056 1059.3671575 402.66702652 1062.00323296 C412.00215888 1103.2357466 421.26916445 1144.48359699 430.54142189 1185.73028755 C433.97866059 1201.02027734 437.42101626 1216.30909883 440.8708725 1231.59624672 C442.12670482 1237.16183852 443.38159805 1242.72764216 444.63654709 1248.29343319 C445.58232467 1252.4874775 446.52878964 1256.68136388 447.47705078 1260.87484741 C459.18996836 1312.67762598 459.18996836 1312.67762598 460.75 1326.1875 C460.86214844 1327.06728516 460.97429687 1327.94707031 461.08984375 1328.85351562 C466.19545884 1370.20899783 464.88396868 1415.8394723 438.22729492 1450.02490234 C425.0757626 1466.19423528 405.68820376 1475.83639303 385 1478 C345.11245963 1479.92787539 309.91183115 1469.43501777 274.81494141 1450.95458984 C272.99082009 1449.99517172 271.15832866 1449.05343889 269.32421875 1448.11328125 C261.98631045 1444.31603519 254.90343636 1440.185663 247.88061523 1435.83618164 C240.74065049 1431.42204911 233.52346516 1427.14439005 226.29782104 1422.87271118 C216.64519632 1417.16567062 207.0076715 1411.44676031 197.5 1405.5 C188.78756453 1400.05153347 179.96812753 1394.79485078 171.125 1389.5625 C159.00559087 1382.39058679 146.94133388 1375.13695754 134.92724609 1367.78955078 C129.47638337 1364.45720518 124.02109054 1361.13216734 118.5625 1357.8125 C117.9862085 1357.46192535 117.40991699 1357.11135071 116.81616211 1356.75015259 C106.30810051 1350.36198616 95.73645663 1344.08368541 85.15286255 1337.82168579 C77.47203476 1333.27548352 69.8194143 1328.70122715 62.28759766 1323.91088867 C55.16008013 1319.41165514 47.880066 1315.16391569 40.625 1310.875 C30.69384869 1305.00388308 20.80626064 1299.07820347 11 1293 C-0.00606352 1286.18045552 -11.11323827 1279.54484169 -22.26660156 1272.96972656 C-28.55361502 1269.25955155 -34.81586942 1265.52192 -41.00390625 1261.6484375 C-42.59779175 1260.65577881 -42.59779175 1260.65577881 -44.22387695 1259.64306641 C-46.18878811 1258.41386744 -48.14739184 1257.17450623 -50.09838867 1255.92333984 C-50.95795166 1255.38660645 -51.81751465 1254.84987305 -52.703125 1254.296875 C-53.44208008 1253.82604492 -54.18103516 1253.35521484 -54.94238281 1252.87011719 C-56.91850402 1251.84985387 -56.91850402 1251.84985387 -58.8828125 1252.13989258 C-61.81479805 1253.33101171 -64.44456511 1254.85835441 -67.171875 1256.46484375 C-67.766017 1256.8133287 -68.360159 1257.16181366 -68.9723053 1257.52085876 C-70.9013266 1258.65453071 -72.82576953 1259.79571829 -74.75 1260.9375 C-76.08932776 1261.72756126 -77.42876513 1262.51743675 -78.76831055 1263.30712891 C-85.75834803 1267.43671072 -92.70497088 1271.62390808 -99.55419922 1275.98364258 C-106.73234571 1280.52196928 -114.06482572 1284.80429774 -121.375 1289.125 C-131.30627574 1294.99589835 -141.19374578 1300.92180051 -151 1307 C-160.66428088 1312.9881531 -170.40278629 1318.83648278 -180.1875 1324.625 C-192.202933 1331.7341017 -204.16228514 1338.92641232 -216.07275391 1346.21044922 C-221.52361663 1349.54279482 -226.97890946 1352.86783266 -232.4375 1356.1875 C-233.0137915 1356.53807465 -233.59008301 1356.88864929 -234.18383789 1357.24984741 C-244.69189949 1363.63801384 -255.26354337 1369.91631459 -265.84713745 1376.17831421 C-273.52796524 1380.72451648 -281.1805857 1385.29877285 -288.71240234 1390.08911133 C-296.52539735 1395.02105138 -304.51703161 1399.66237171 -312.47009277 1404.36340332 C-323.15915633 1410.68467825 -333.77695326 1417.10767076 -344.32568359 1423.66064453 C-350.27683505 1427.35231547 -356.2789661 1430.93461989 -362.33837891 1434.44580078 C-364.41311257 1435.65729908 -366.46685761 1436.88707913 -368.50390625 1438.16015625 C-408.55311207 1463.06943241 -461.09985623 1486.76291215 -509.56420898 1476.82177734 C-533.2265839 1470.97416283 -551.32070119 1457.37763781 -564.0625 1436.6875 C-574.65375725 1418.15215164 -579.078895 1395.4208989 -579.203125 1374.25 C-579.21013931 1373.44261383 -579.21715363 1372.63522766 -579.22438049 1371.80337524 C-579.24181812 1369.20219282 -579.24823631 1366.6012388 -579.25 1364 C-579.25067474 1363.10706238 -579.25134949 1362.21412476 -579.25204468 1361.29412842 C-579.23452571 1346.66758927 -578.47159456 1332.44074938 -576 1318 C-575.76651855 1316.58871826 -575.76651855 1316.58871826 -575.52832031 1315.14892578 C-573.27724132 1301.82891843 -570.27880453 1288.66819289 -567.26447296 1275.50506783 C-566.15315203 1270.65030273 -565.04749636 1265.79424708 -563.94165039 1260.93823242 C-563.5861892 1259.37767451 -563.5861892 1259.37767451 -563.22354698 1257.78559017 C-560.37033099 1245.24906755 -557.55195885 1232.70472624 -554.734375 1220.16015625 C-554.4593408 1218.93590124 -554.1843066 1217.71164623 -553.90093803 1216.45029259 C-552.45508691 1210.0143004 -551.00960542 1203.57822527 -549.56439209 1197.14208984 C-546.3962382 1183.033136 -543.2257237 1168.92471253 -540.0546875 1154.81640625 C-539.80931582 1153.72468794 -539.80931582 1153.72468794 -539.55898714 1152.61091471 C-534.32189427 1129.3101635 -529.0752202 1106.01158363 -523.8203125 1082.71484375 C-523.65272305 1081.97186137 -523.48513359 1081.228879 -523.31246567 1080.46338201 C-520.20797562 1066.700387 -517.10242578 1052.93763118 -513.99597168 1039.17507935 C-513.76718142 1038.16142908 -513.76718142 1038.16142908 -513.53376913 1037.12730104 C-512.77611156 1033.77056479 -512.01834557 1030.41385308 -511.26036835 1027.05718899 C-509.81116371 1020.63876422 -508.36395483 1014.21989927 -506.92114258 1007.80003357 C-504.46213857 996.86468604 -501.99288262 985.93247382 -499.45548058 975.01500702 C-498.38372977 970.3993264 -497.3216875 965.78143884 -496.26065445 961.1632843 C-495.76372787 959.01342147 -495.26186093 956.86469384 -494.75475693 954.71720886 C-494.06526473 951.79657969 -493.39237761 948.87259192 -492.72314453 945.94726562 C-492.51632175 945.09161514 -492.30949898 944.23596466 -492.09640884 943.35438538 C-491.920229 942.56958298 -491.74404915 941.78478058 -491.56253052 940.97619629 C-491.40452532 940.3000956 -491.24652012 939.6239949 -491.08372688 938.92740631 C-490.97465782 936.41661883 -491.67972714 935.1130643 -493 933 C-495.21393804 930.94614261 -495.21393804 930.94614261 -497.875 928.9375 C-502.07390291 925.59920774 -506.08053997 922.16071817 -510 918.5 C-513.7079371 915.04767997 -517.48511117 911.73473661 -521.4375 908.5625 C-526.21541338 904.71954521 -530.68994984 900.63168671 -535.16162109 896.44384766 C-539.37429105 892.52093146 -543.76413555 888.88088976 -548.25390625 885.27734375 C-551.26319052 882.78173531 -554.13938654 880.16234857 -557 877.5 C-560.73327255 874.02580757 -564.52371111 870.6993129 -568.5 867.5 C-573.01777813 863.86500611 -577.27818516 860.0328971 -581.51953125 856.0859375 C-584.75211747 853.09558642 -588.06705866 850.26213671 -591.5 847.5 C-596.01777813 843.86500611 -600.27818516 840.0328971 -604.51953125 836.0859375 C-607.75211747 833.09558642 -611.06705866 830.26213671 -614.5 827.5 C-619.01777813 823.86500611 -623.27818516 820.0328971 -627.51953125 816.0859375 C-630.75211747 813.09558642 -634.06705866 810.26213671 -637.5 807.5 C-642.01777813 803.86500611 -646.27818516 800.0328971 -650.51953125 796.0859375 C-653.75211747 793.09558642 -657.06705866 790.26213671 -660.5 787.5 C-665.01858176 783.8643595 -669.27983329 780.03163598 -673.52172852 776.08374023 C-676.7329905 773.11284372 -680.02627815 770.30038923 -683.4375 767.5625 C-688.21541338 763.71954521 -692.68994984 759.63168671 -697.16162109 755.44384766 C-701.37429105 751.52093146 -705.76413555 747.88088976 -710.25390625 744.27734375 C-713.26319052 741.78173531 -716.13938654 739.16234857 -719 736.5 C-722.73327255 733.02580757 -726.52371111 729.6993129 -730.5 726.5 C-735.02018919 722.86306617 -739.28312787 719.02911197 -743.52612305 715.0793457 C-746.69351422 712.14850201 -749.94097701 709.37972354 -753.3125 706.6875 C-759.31822474 701.85510788 -764.87599469 696.58920749 -770.4765625 691.30078125 C-773.26226284 688.67462422 -776.10443525 686.13020705 -779 683.625 C-782.31451153 680.70477981 -785.21907996 677.61948494 -788.06640625 674.24609375 C-789.95602963 672.0510767 -791.91656205 669.93562028 -793.89892578 667.82446289 C-820.5577026 639.31016154 -840.99371227 603.90071929 -840.30859375 564.06640625 C-839.4869532 542.22304103 -829.112698 522.93590167 -813.34375 508.01171875 C-766.59339935 467.88433444 -701.99844179 464.3641926 -643.44958711 459.25377607 C-637.49467815 458.73177062 -631.540693 458.19949893 -625.58670013 457.66717125 C-614.42638351 456.66950083 -603.26550043 455.6783727 -592.10415823 454.69224666 C-574.85506867 453.1680939 -557.60808582 451.62113706 -540.36181641 450.06542969 C-539.01057592 449.94357263 -537.65933505 449.82171992 -536.30809379 449.69987154 C-530.91059917 449.21313667 -525.51311103 448.72633023 -520.11564004 448.23933339 C-506.71952475 447.0307106 -493.32307425 445.82582358 -479.92656684 444.62155581 C-476.59754855 444.32229473 -473.26853663 444.02296288 -469.9395271 443.72360443 C-454.94379731 442.37513103 -439.94795523 441.02791459 -424.95200066 439.68194322 C-413.3970041 438.64477516 -401.84216706 437.60584455 -390.28746146 436.56543982 C-382.66309773 435.87901093 -375.03856473 435.19450561 -367.4138943 434.51149249 C-362.75149785 434.09335335 -358.08927404 433.67331464 -353.42709923 433.25271225 C-351.27359979 433.05881468 -349.12002972 432.8656997 -346.96638489 432.67342377 C-344.03422508 432.4115296 -341.10233087 432.14683736 -338.17048645 431.88143921 C-337.3211086 431.8062545 -336.47173075 431.7310698 -335.59661418 431.65360677 C-333.39559545 431.45275462 -331.19798591 431.23139338 -329 431 C-327.86302516 430.88603189 -326.72605032 430.77206379 -325.5546217 430.65464211 C-322.59427207 430.21278116 -322.59427207 430.21278116 -320.95556641 426.64428711 C-320.31327549 425.11528388 -319.69725859 423.57509524 -319.1015625 422.02734375 C-318.75412994 421.183461 -318.40669739 420.33957825 -318.04873657 419.47012329 C-317.28931488 417.6177322 -316.54085842 415.76081797 -315.80187988 413.900177 C-314.60198034 410.87955033 -313.37487343 407.87133185 -312.13964844 404.86499023 C-310.81429507 401.63870977 -309.4907109 398.41181893 -308.17529297 395.18147278 C-303.51655844 383.74832419 -298.64756548 372.40840143 -293.76138306 361.0710144 C-291.20534514 355.13744526 -288.65963141 349.19945024 -286.11328125 343.26171875 C-285.35083351 341.48448174 -285.35083351 341.48448174 -284.57298279 339.67134094 C-279.17351581 327.08149229 -273.80283637 314.47942423 -268.4375 301.875 C-267.96592468 300.76727234 -267.49434937 299.65954468 -267.00848389 298.51824951 C-264.1505925 291.80475001 -261.29354176 285.09089303 -258.43682861 278.37689209 C-254.08397125 268.14663257 -249.73025424 257.91673936 -245.375 247.6875 C-244.65846756 246.00451813 -244.65846756 246.00451813 -243.92745972 244.28753662 C-236.71744526 227.35516944 -229.47890303 210.4352048 -222.2225647 193.52264404 C-213.99366166 174.34187855 -205.80927891 155.14232495 -197.63671875 135.9375 C-193.10403178 125.28609563 -188.56971416 114.63558403 -184 104 C-183.56308838 102.9783374 -183.12617676 101.9566748 -182.67602539 100.90405273 C-168.86826457 68.68765103 -152.48824438 38.41098982 -128 13 C-127.15179687 12.07703125 -126.30359375 11.1540625 -125.4296875 10.203125 C-90.58888919 -26.61371858 -39.93159343 -31.20916203 0 0 Z " fill="#000000" transform="translate(840,21)"/>
</svg>
