<?xml version="1.0" encoding="UTF-8"?>
<svg viewBox="0 0 1631 1178" version="1.1" xmlns="http://www.w3.org/2000/svg" width="1631" height="1178">
<path d="M0 0 C33.11199108 26.2136596 49.64173102 64.55291376 65.60229492 102.51004028 C67.81961735 107.77390805 70.05539325 113.02987235 72.29296875 118.28515625 C72.72903442 119.30968399 73.1651001 120.33421173 73.61437988 121.38978577 C74.98207859 124.60248612 76.3503466 127.81494349 77.71875 131.02734375 C78.20480713 132.16864746 78.69086426 133.30995117 79.19165039 134.48583984 C87.27931 153.47403116 95.4013961 172.44732187 103.53793335 191.41461182 C110.89507677 208.5661597 118.22453634 225.72925465 125.53125 242.90234375 C136.52635191 268.74405751 147.58423981 294.55856333 158.65673828 320.3671875 C161.45005859 326.87812835 164.24097481 333.39009745 167.03125 339.90234375 C185.38539455 341.92659424 203.74622352 343.75159968 222.1394043 345.38256836 C224.71379657 345.612737 227.28816724 345.84314722 229.86251831 346.07377625 C235.34305228 346.56452488 240.82372287 347.05372091 246.3044796 347.54197502 C254.99661959 348.31648976 263.68826278 349.0965005 272.37983704 349.87733459 C275.37424205 350.14628481 278.36864946 350.4152082 281.36305714 350.68412876 C282.48460505 350.78485587 282.48460505 350.78485587 283.62881049 350.88761787 C292.08262967 351.64680845 300.53652953 352.40509812 308.99047852 353.1628418 C310.14566018 353.26638531 310.14566018 353.26638531 311.32417885 353.37202061 C323.81468489 354.49143505 336.3056111 355.60610233 348.79665747 356.71946888 C361.70637391 357.87031399 374.6154735 359.02791334 387.5240739 360.19120985 C395.44070922 360.90440049 403.35777855 361.61231274 411.27552793 362.31302894 C417.35747793 362.85181233 423.43856033 363.39988409 429.51939011 363.95115852 C431.98714079 364.17344876 434.45515451 364.39284419 436.92346001 364.60888672 C476.56897135 368.0842417 521.05697664 373.3015061 552.03125 400.90234375 C552.87429688 401.6396875 553.71734375 402.37703125 554.5859375 403.13671875 C565.13865216 412.95170564 573.09965408 426.62198206 574.20825195 441.2355957 C574.98216301 471.60929216 564.11059169 495.65504959 545.03125 518.90234375 C544.57911133 519.45744629 544.12697266 520.01254883 543.66113281 520.58447266 C518.14083931 551.72562412 518.14083931 551.72562412 504.79296875 557.9453125 C502.67379409 558.83692913 502.67379409 558.83692913 502.03125 561.90234375 C500.48121996 563.29824322 498.86490761 564.62121394 497.21875 565.90234375 C493.00140156 569.26312853 488.97167037 572.72247363 485.03125 576.40234375 C480.44449412 580.67238978 475.69674516 584.65999133 470.8125 588.58984375 C467.79105812 591.10205385 464.90683227 593.72635202 462.03125 596.40234375 C457.44364887 600.67152527 452.69682272 604.65992892 447.8125 608.58984375 C444.79105812 611.10205385 441.90683227 613.72635202 439.03125 616.40234375 C434.44364887 620.67152527 429.69682272 624.65992892 424.8125 628.58984375 C421.79105812 631.10205385 418.90683227 633.72635202 416.03125 636.40234375 C411.44364887 640.67152527 406.69682272 644.65992892 401.8125 648.58984375 C398.79105812 651.10205385 395.90683227 653.72635202 393.03125 656.40234375 C388.44364887 660.67152527 383.69682272 664.65992892 378.8125 668.58984375 C375.79105812 671.10205385 372.90683227 673.72635202 370.03125 676.40234375 C365.44364887 680.67152527 360.69682272 684.65992892 355.8125 688.58984375 C352.79105812 691.10205385 349.90683227 693.72635202 347.03125 696.40234375 C342.44364887 700.67152527 337.69682272 704.65992892 332.8125 708.58984375 C329.79105368 711.10205754 326.90688313 713.72640095 324.03125 716.40234375 C320.23447198 719.93444401 316.37553607 723.32280372 312.34375 726.58984375 C311.45816406 727.31429687 310.57257812 728.03875 309.66015625 728.78515625 C307.89855272 730.20386221 306.11402632 731.59453838 304.30859375 732.95703125 C303.47457031 733.61960937 302.64054688 734.2821875 301.78125 734.96484375 C301.03359375 735.53332031 300.2859375 736.10179687 299.515625 736.6875 C297.27708073 740.02764368 298.36583209 743.13101547 299.03125 746.90234375 C299.7391687 750.48505988 300.5357382 754.04456097 301.34667969 757.60522461 C301.70219327 759.1874264 301.70219327 759.1874264 302.06488895 760.80159187 C302.85736888 764.32427853 303.6552653 767.84571575 304.453125 771.3671875 C305.02318263 773.89628056 305.59289127 776.4254523 306.16227722 778.95469666 C307.38790404 784.39667552 308.6162345 789.83803823 309.84640503 795.2789917 C311.63032664 803.16932878 313.40989571 811.06064244 315.18820035 818.95224714 C316.01836955 822.63628217 316.8486957 826.32028183 317.67906189 830.00427246 C317.84536041 830.74207152 318.01165894 831.47987058 318.18299681 832.24002719 C319.37834085 837.54285772 320.57448086 842.84550835 321.77101135 848.14807129 C328.23373636 876.78874341 334.67683209 905.43381288 341.11485481 934.08004665 C342.99434978 942.44287435 344.87450924 950.8055522 346.75540447 959.16806507 C347.93408519 964.40852212 349.11243473 969.64905362 350.29076576 974.88958931 C350.83009378 977.28796372 351.36952546 979.68631482 351.9090786 982.0846386 C353.37236528 988.58924287 354.83302676 995.09442664 356.29050827 1001.60033417 C356.80536791 1003.8954276 357.32141788 1006.19025419 357.83839798 1008.48487091 C358.65582318 1012.11323797 359.469891 1015.74234577 360.28344727 1019.37158203 C360.53114585 1020.46736006 360.77884443 1021.56313808 361.03404903 1022.69212151 C367.33668234 1050.88696072 370.82650116 1084.85460026 362.03125 1112.90234375 C361.70181396 1113.97814697 361.70181396 1113.97814697 361.36572266 1115.07568359 C358.50828454 1124.11311526 354.69233954 1132.24543772 349.03125 1139.90234375 C348.26748047 1140.95808594 348.26748047 1140.95808594 347.48828125 1142.03515625 C337.72920439 1154.32436415 322.33727723 1161.73733341 307.03125 1163.90234375 C266.71796758 1166.86660375 230.76882801 1151.79732959 197.03125 1130.90234375 C188.40005199 1125.55725108 179.71775475 1120.31519712 170.97717285 1115.15179443 C159.87360222 1108.58973468 148.80009788 1101.98072926 137.78125 1095.27734375 C136.92568008 1094.75695023 136.92568008 1094.75695023 136.05282593 1094.2260437 C131.47438367 1091.44043359 126.89849757 1088.65063546 122.32275391 1085.8605957 C118.31013853 1083.41417253 114.29639691 1080.96961001 110.28125 1078.52734375 C109.71215912 1078.18108948 109.14306824 1077.83483521 108.55673218 1077.47808838 C98.25719967 1071.21547547 87.89418237 1065.06269605 77.51965332 1058.925354 C68.6508592 1053.67652417 59.84265778 1048.34840197 51.10400391 1042.88476562 C43.29506894 1038.02262727 35.38566869 1033.33558158 27.46875 1028.65234375 C17.72369502 1022.88751371 7.99847988 1017.0943704 -1.67303467 1011.20684814 C-3.39122223 1010.16148678 -5.11071252 1009.11830079 -6.83056641 1008.07568359 C-12.00767592 1004.93390406 -17.17612674 1001.78025022 -22.31602478 998.57800293 C-24.06257927 997.49203746 -25.81286177 996.41238286 -27.56469727 995.33496094 C-29.73922921 993.99595639 -31.90682388 992.64559765 -34.06616211 991.28222656 C-35.03303955 990.69022461 -35.99991699 990.09822266 -36.99609375 989.48828125 C-37.83906006 988.96282715 -38.68202637 988.43737305 -39.55053711 987.89599609 C-42.59368854 986.64555426 -43.87162429 986.85072555 -46.96875 987.90234375 C-49.74169857 989.30631868 -49.74169857 989.30631868 -52.59765625 991.12109375 C-53.70012695 991.7970459 -54.80259766 992.47299805 -55.93847656 993.16943359 C-57.1360822 993.91371365 -58.33367293 994.65801772 -59.53125 995.40234375 C-60.78693763 996.17479981 -62.0431319 996.94643283 -63.29980469 997.71728516 C-65.90715805 999.3176658 -68.51230258 1000.92154942 -71.11572266 1002.52832031 C-76.96750475 1006.13744082 -82.84233889 1009.70848353 -88.71875 1013.27734375 C-89.28705536 1013.62296356 -89.85536072 1013.96858337 -90.44088745 1014.32467651 C-100.62941467 1020.51979523 -110.88026592 1026.60675208 -121.14343262 1032.67718506 C-130.13955106 1038.00084253 -139.08224866 1043.39702756 -147.96875 1048.90234375 C-157.53027087 1054.82584431 -167.16306725 1060.61393697 -176.84375 1066.33984375 C-187.00174614 1072.34895699 -197.1359059 1078.39284561 -207.21875 1084.52734375 C-208.07608734 1085.04882492 -208.07608734 1085.04882492 -208.95074463 1085.58084106 C-212.95816122 1088.01902205 -216.96369816 1090.46028084 -220.96875 1092.90234375 C-225.55075245 1095.69619978 -230.1336022 1098.48865201 -234.71875 1101.27734375 C-235.28750854 1101.62326569 -235.85626709 1101.96918762 -236.44226074 1102.32559204 C-247.44431833 1109.01240506 -258.50424586 1115.60056064 -269.58862305 1122.14990234 C-275.29343213 1125.52210043 -280.99268277 1128.89656293 -286.62890625 1132.3828125 C-319.46523848 1152.66163865 -359.17770762 1170.18682737 -398.72265625 1163.21875 C-402.27273793 1162.32660226 -405.5735435 1161.26469705 -408.96875 1159.90234375 C-410.00386719 1159.50144531 -411.03898438 1159.10054687 -412.10546875 1158.6875 C-428.30038866 1151.5335341 -439.13171337 1137.17623629 -446.04785156 1121.29882812 C-459.10002324 1087.33273132 -453.29698693 1048.39213048 -445.7109375 1013.9453125 C-445.27082401 1011.93448335 -444.83080421 1009.9236337 -444.39086914 1007.9127655 C-438.84040866 982.6013551 -433.11642247 957.32840761 -427.40144688 932.05375212 C-425.7777777 924.87202241 -424.15782533 917.68945537 -422.53787482 910.50688612 C-416.25859138 882.66768327 -409.96095778 854.83280459 -403.61132228 827.00955683 C-402.52003968 822.22718181 -401.43029775 817.44445793 -400.34164429 812.66148376 C-400.19115871 812.00035652 -400.04067313 811.33922928 -399.88562739 810.65806788 C-399.13892735 807.37739851 -398.39240367 804.09668911 -397.64602089 800.81594753 C-395.9177529 793.22237913 -394.18125923 785.6307507 -392.43874454 778.04043961 C-391.3696745 773.37533963 -390.30797728 768.70858517 -389.24835014 764.04133224 C-388.75713681 761.88504689 -388.26275371 759.72948086 -387.7650013 757.57469559 C-387.09033257 754.6524423 -386.42672209 751.72789365 -385.76586914 748.80249023 C-385.56621552 747.95017224 -385.36656189 747.09785425 -385.16085815 746.21970844 C-384.98689011 745.43910148 -384.81292206 744.65849451 -384.63368225 743.85423279 C-384.47999207 743.18261329 -384.3263019 742.51099379 -384.16795444 741.81902218 C-383.93378149 739.56588842 -384.20663348 738.03125416 -384.96875 735.90234375 C-387.08718729 733.82607367 -387.08718729 733.82607367 -389.78125 731.83984375 C-394.01134374 728.50720845 -398.03668251 725.08019104 -401.96875 721.40234375 C-405.70102921 717.9271731 -409.49257096 714.60156827 -413.46875 711.40234375 C-417.98652813 707.76734986 -422.24693516 703.93524085 -426.48828125 699.98828125 C-429.72086747 696.99793017 -433.03580866 694.16448046 -436.46875 691.40234375 C-440.98652813 687.76734986 -445.24693516 683.93524085 -449.48828125 679.98828125 C-452.72086747 676.99793017 -456.03580866 674.16448046 -459.46875 671.40234375 C-463.98652813 667.76734986 -468.24693516 663.93524085 -472.48828125 659.98828125 C-475.72086747 656.99793017 -479.03580866 654.16448046 -482.46875 651.40234375 C-486.98652813 647.76734986 -491.24693516 643.93524085 -495.48828125 639.98828125 C-498.72086747 636.99793017 -502.03580866 634.16448046 -505.46875 631.40234375 C-509.98652813 627.76734986 -514.24693516 623.93524085 -518.48828125 619.98828125 C-521.72086747 616.99793017 -525.03580866 614.16448046 -528.46875 611.40234375 C-532.98652813 607.76734986 -537.24693516 603.93524085 -541.48828125 599.98828125 C-544.72086747 596.99793017 -548.03580866 594.16448046 -551.46875 591.40234375 C-555.44505501 588.20301788 -559.23534396 584.87641045 -562.96875 581.40234375 C-568.43790956 576.31555624 -574.15209296 571.58849065 -579.96875 566.90234375 C-582.36965054 564.9531806 -584.68092289 562.98680845 -586.96875 560.90234375 C-586.96875 560.24234375 -586.96875 559.58234375 -586.96875 558.90234375 C-587.49984375 558.67804687 -588.0309375 558.45375 -588.578125 558.22265625 C-591.78517152 556.45144428 -594.45798482 554.16010305 -597.21875 551.77734375 C-597.82356201 551.25599854 -598.42837402 550.73465332 -599.05151367 550.19750977 C-610.27457557 540.37786762 -620.96382722 529.810493 -629.96875 517.90234375 C-630.40525879 517.33161133 -630.84176758 516.76087891 -631.29150391 516.17285156 C-649.74913461 491.96591402 -661.53755623 466.61685698 -657.53515625 435.53515625 C-656.89107134 432.8388008 -656.05884531 430.45107193 -654.96875 427.90234375 C-654.25525391 426.21431641 -654.25525391 426.21431641 -653.52734375 424.4921875 C-649.91691568 416.45303972 -645.2982868 410.06393264 -638.96875 403.90234375 C-638.24300781 403.15597656 -637.51726563 402.40960938 -636.76953125 401.640625 C-605.66028674 371.37645335 -555.6313199 367.6658257 -514.88012695 364.06152344 C-512.05846987 363.80646896 -509.23705159 363.54881349 -506.4156189 363.29129028 C-499.6190596 362.67248691 -492.82172349 362.06268154 -486.02406458 361.45609042 C-478.09240844 360.74792504 -470.16161744 360.03028591 -462.23084595 359.31229249 C-448.08542764 358.03196614 -433.93929932 356.75966725 -419.79272461 355.4921875 C-406.08389589 354.26391773 -392.37554839 353.03045156 -378.66772461 351.79101562 C-377.82041738 351.71440463 -376.97311016 351.63779364 -376.10012696 351.55886111 C-374.39302765 351.40450636 -372.6859284 351.25015091 -370.97882922 351.09579475 C-369.71552224 350.98156729 -369.71552224 350.98156729 -368.42669392 350.8650322 C-367.16644316 350.75107788 -367.16644316 350.75107788 -365.88073279 350.63482146 C-352.77467678 349.44992433 -339.66824458 348.26919829 -326.56175399 347.08911906 C-322.6102992 346.73331521 -318.65886471 346.3772887 -314.70747399 346.02077389 C-306.41560519 345.27264049 -298.12361997 344.52585946 -289.83119825 343.78387639 C-286.40543534 343.4773234 -282.97975162 343.16995091 -279.55426979 342.86027145 C-275.84229171 342.52517674 -272.13003251 342.19339168 -268.41767883 341.86248779 C-266.79442065 341.71483353 -266.79442065 341.71483353 -265.13836938 341.56419635 C-260.39922387 341.14510457 -255.73247448 340.77720756 -250.96875 340.90234375 C-250.77829857 339.80826958 -250.77829857 339.80826958 -250.58399963 338.6920929 C-249.99603488 336.02606258 -249.19796933 333.77052219 -248.12475586 331.26635742 C-247.7408519 330.36410934 -247.35694794 329.46186127 -246.96141052 328.53227234 C-246.53973099 327.55482559 -246.11805145 326.57737885 -245.68359375 325.5703125 C-245.240121 324.53191727 -244.79664825 323.49352203 -244.33973694 322.42366028 C-242.86644705 318.97709266 -241.38634676 315.53349307 -239.90625 312.08984375 C-238.86481025 309.65708122 -237.82375697 307.22415684 -236.78320312 304.79101562 C-234.33159184 299.06073391 -231.87512958 293.33254613 -229.41650963 287.60526848 C-226.57816824 280.99329236 -223.74404738 274.3795096 -220.91015625 267.765625 C-217.93267166 260.81726574 -214.95470211 253.86911611 -211.97460938 246.921875 C-204.92646591 230.48862714 -197.90834775 214.04275979 -190.90625 197.58984375 C-183.28154835 179.67475656 -175.64031337 161.76706393 -167.96086121 143.87538147 C-163.7972627 134.17448966 -159.64028335 124.47075984 -155.48223877 114.76748657 C-154.14236025 111.64077941 -152.80240195 108.51410644 -151.46240234 105.38745117 C-151.03910645 104.39964157 -150.61581055 103.41183197 -150.1796875 102.39408875 C-149.34038519 100.43601013 -148.5007082 98.47809206 -147.66064453 96.52033997 C-145.60018878 91.71721152 -143.54647725 86.91141018 -141.50634766 82.09960938 C-140.90909378 80.69501968 -140.90909378 80.69501968 -140.29977417 79.26205444 C-139.55793843 77.51688602 -138.81839884 75.77073864 -138.08181763 74.02334595 C-129.99420393 55.02693642 -119.50819237 36.5581719 -105.96875 20.90234375 C-104.92654297 19.67837891 -104.92654297 19.67837891 -103.86328125 18.4296875 C-75.86587343 -13.63106093 -36.52993892 -25.81128579 0 0 Z " fill="#000000" transform="translate(657.96875,14.09765625)"/>
<path d="M0 0 C44.22 0 88.44 0 134 0 C134 65.34 134 130.68 134 198 C199.34 198 264.68 198 332 198 C332 242.22 332 286.44 332 332 C266.66 332 201.32 332 134 332 C134 397.34 134 462.68 134 530 C89.78 530 45.56 530 0 530 C0 464.66 0 399.32 0 332 C-65.34 332 -130.68 332 -198 332 C-198 287.78 -198 243.56 -198 198 C-132.66 198 -67.32 198 0 198 C0 132.66 0 67.32 0 0 Z " fill="#000000" transform="translate(1299,0)"/>
</svg>
